REM DIRINDEX 1\2\4,1\2\5,1\2\6,1\3\7,1\3\8,1\3\9,1\3\10
REM DIRNAME cjc057,folder01,folder02,folder03,folder04,folder05,folder06,folder07,folder08,folder09
TITLE ""
FILE "b_136.mp3" MP3
  TRACK 01 AUDIO
    TITLE "0:"
    INDEX 01 00:00:00
  TRACK 02 AUDIO
    TITLE "7:cjc057_08449"
    INDEX 01 00:00:13
  TRACK 03 AUDIO
    TITLE "0:"
    INDEX 01 00:01:50
  TRACK 04 AUDIO
    TITLE "8:cjc057_08450"
    INDEX 01 00:02:08
  TRACK 05 AUDIO
    TITLE "0:"
    INDEX 01 00:04:05
  TRACK 06 AUDIO
    TITLE "7:cjc057_08451"
    INDEX 01 00:05:12
  TRACK 07 AUDIO
    TITLE "0:"
    INDEX 01 00:06:22
  TRACK 08 AUDIO
    TITLE "8:cjc057_08452"
    INDEX 01 00:06:57
  TRACK 09 AUDIO
    TITLE "0:"
    INDEX 01 00:10:19
  TRACK 10 AUDIO
    TITLE "7:cjc057_08453"
    INDEX 01 00:11:25
  TRACK 11 AUDIO
    TITLE "0:"
    INDEX 01 00:12:65
  TRACK 12 AUDIO
    TITLE "8:cjc057_08454"
    INDEX 01 00:13:20
  TRACK 13 AUDIO
    TITLE "0:"
    INDEX 01 00:16:30
  TRACK 14 AUDIO
    TITLE "7:cjc057_08455"
    INDEX 01 00:17:37
  TRACK 15 AUDIO
    TITLE "0:"
    INDEX 01 00:18:54
  TRACK 16 AUDIO
    TITLE "8:cjc057_08456"
    INDEX 01 00:19:13
  TRACK 17 AUDIO
    TITLE "0:"
    INDEX 01 00:21:58
  TRACK 18 AUDIO
    TITLE "7:cjc057_08457"
    INDEX 01 00:22:66
  TRACK 19 AUDIO
    TITLE "0:"
    INDEX 01 00:24:20
  TRACK 20 AUDIO
    TITLE "8:cjc057_08458"
    INDEX 01 00:24:55
  TRACK 21 AUDIO
    TITLE "0:"
    INDEX 01 00:27:02
  TRACK 22 AUDIO
    TITLE "7:cjc057_08459"
    INDEX 01 00:28:10
  TRACK 23 AUDIO
    TITLE "0:"
    INDEX 01 00:29:38
  TRACK 24 AUDIO
    TITLE "8:cjc057_08460"
    INDEX 01 00:29:72
  TRACK 25 AUDIO
    TITLE "0:"
    INDEX 01 00:32:19
  TRACK 26 AUDIO
    TITLE "7:cjc057_08461"
    INDEX 01 00:33:28
  TRACK 27 AUDIO
    TITLE "0:"
    INDEX 01 00:34:49
  TRACK 28 AUDIO
    TITLE "8:cjc057_08462"
    INDEX 01 00:35:08
  TRACK 29 AUDIO
    TITLE "0:"
    INDEX 01 00:37:24
  TRACK 30 AUDIO
    TITLE "7:cjc057_08463"
    INDEX 01 00:38:31
  TRACK 31 AUDIO
    TITLE "0:"
    INDEX 01 00:39:56
  TRACK 32 AUDIO
    TITLE "8:cjc057_08464"
    INDEX 01 00:40:11
  TRACK 33 AUDIO
    TITLE "0:"
    INDEX 01 00:42:14
  TRACK 34 AUDIO
    TITLE "7:cjc057_08465"
    INDEX 01 00:43:23
  TRACK 35 AUDIO
    TITLE "0:"
    INDEX 01 00:44:56
  TRACK 36 AUDIO
    TITLE "8:cjc057_08466"
    INDEX 01 00:45:14
  TRACK 37 AUDIO
    TITLE "0:"
    INDEX 01 00:46:27
  TRACK 38 AUDIO
    TITLE "7:cjc057_08467"
    INDEX 01 00:47:34
  TRACK 39 AUDIO
    TITLE "0:"
    INDEX 01 00:48:67
  TRACK 40 AUDIO
    TITLE "8:cjc057_08468"
    INDEX 01 00:49:23
  TRACK 41 AUDIO
    TITLE "0:"
    INDEX 01 00:52:63
  TRACK 42 AUDIO
    TITLE "7:cjc057_08469"
    INDEX 01 00:53:70
  TRACK 43 AUDIO
    TITLE "0:"
    INDEX 01 00:55:14
  TRACK 44 AUDIO
    TITLE "8:cjc057_08470"
    INDEX 01 00:55:48
  TRACK 45 AUDIO
    TITLE "0:"
    INDEX 01 00:57:31
  TRACK 46 AUDIO
    TITLE "7:cjc057_08471"
    INDEX 01 00:58:40
  TRACK 47 AUDIO
    TITLE "0:"
    INDEX 01 01:00:00
  TRACK 48 AUDIO
    TITLE "8:cjc057_08472"
    INDEX 01 01:00:35
  TRACK 49 AUDIO
    TITLE "0:"
    INDEX 01 01:03:31
  TRACK 50 AUDIO
    TITLE "7:cjc057_08473"
    INDEX 01 01:04:41
  TRACK 51 AUDIO
    TITLE "0:"
    INDEX 01 01:06:18
  TRACK 52 AUDIO
    TITLE "8:cjc057_08474"
    INDEX 01 01:06:51
  TRACK 53 AUDIO
    TITLE "0:"
    INDEX 01 01:07:70
  TRACK 54 AUDIO
    TITLE "7:cjc057_08475"
    INDEX 01 01:09:03
  TRACK 55 AUDIO
    TITLE "0:"
    INDEX 01 01:10:51
  TRACK 56 AUDIO
    TITLE "8:cjc057_08476"
    INDEX 01 01:11:07
  TRACK 57 AUDIO
    TITLE "0:"
    INDEX 01 01:13:30
  TRACK 58 AUDIO
    TITLE "7:cjc057_08477"
    INDEX 01 01:14:33
  TRACK 59 AUDIO
    TITLE "0:"
    INDEX 01 01:15:64
  TRACK 60 AUDIO
    TITLE "8:cjc057_08478"
    INDEX 01 01:16:20
  TRACK 61 AUDIO
    TITLE "0:"
    INDEX 01 01:17:37
  TRACK 62 AUDIO
    TITLE "7:cjc057_08479"
    INDEX 01 01:18:41
  TRACK 63 AUDIO
    TITLE "0:"
    INDEX 01 01:20:08
  TRACK 64 AUDIO
    TITLE "8:cjc057_08480"
    INDEX 01 01:20:42
  TRACK 65 AUDIO
    TITLE "0:"
    INDEX 01 01:22:66
  TRACK 66 AUDIO
    TITLE "7:cjc057_08481"
    INDEX 01 01:23:73
  TRACK 67 AUDIO
    TITLE "0:"
    INDEX 01 01:25:23
  TRACK 68 AUDIO
    TITLE "8:cjc057_08482"
    INDEX 01 01:25:57
  TRACK 69 AUDIO
    TITLE "0:"
    INDEX 01 01:27:08
  TRACK 70 AUDIO
    TITLE "7:cjc057_08483"
    INDEX 01 01:28:16
  TRACK 71 AUDIO
    TITLE "0:"
    INDEX 01 01:29:23
  TRACK 72 AUDIO
    TITLE "8:cjc057_08484"
    INDEX 01 01:29:56
  TRACK 73 AUDIO
    TITLE "0:"
    INDEX 01 01:30:73
  TRACK 74 AUDIO
    TITLE "7:cjc057_08485"
    INDEX 01 01:32:06
  TRACK 75 AUDIO
    TITLE "0:"
    INDEX 01 01:33:44
  TRACK 76 AUDIO
    TITLE "8:cjc057_08486"
    INDEX 01 01:34:03
  TRACK 77 AUDIO
    TITLE "0:"
    INDEX 01 01:35:14
  TRACK 78 AUDIO
    TITLE "7:cjc057_08487"
    INDEX 01 01:36:21
  TRACK 79 AUDIO
    TITLE "0:"
    INDEX 01 01:37:60
  TRACK 80 AUDIO
    TITLE "8:cjc057_08488"
    INDEX 01 01:38:20
  TRACK 81 AUDIO
    TITLE "0:"
    INDEX 01 01:39:31
  TRACK 82 AUDIO
    TITLE "7:cjc057_08489"
    INDEX 01 01:40:38
  TRACK 83 AUDIO
    TITLE "0:"
    INDEX 01 01:41:63
  TRACK 84 AUDIO
    TITLE "8:cjc057_08490"
    INDEX 01 01:42:20
  TRACK 85 AUDIO
    TITLE "0:"
    INDEX 01 01:43:43
  TRACK 86 AUDIO
    TITLE "7:cjc057_08491"
    INDEX 01 01:44:52
  TRACK 87 AUDIO
    TITLE "0:"
    INDEX 01 01:46:04
  TRACK 88 AUDIO
    TITLE "8:cjc057_08492"
    INDEX 01 01:46:37
  TRACK 89 AUDIO
    TITLE "0:"
    INDEX 01 01:47:70
  TRACK 90 AUDIO
    TITLE "7:cjc057_08493"
    INDEX 01 01:49:02
  TRACK 91 AUDIO
    TITLE "0:"
    INDEX 01 01:50:37
  TRACK 92 AUDIO
    TITLE "8:cjc057_08494"
    INDEX 01 01:50:70
  TRACK 93 AUDIO
    TITLE "0:"
    INDEX 01 01:53:18
  TRACK 94 AUDIO
    TITLE "7:cjc057_08495"
    INDEX 01 01:54:25
  TRACK 95 AUDIO
    TITLE "0:"
    INDEX 01 01:55:54
  TRACK 96 AUDIO
    TITLE "8:cjc057_08496"
    INDEX 01 01:56:12
  TRACK 97 AUDIO
    TITLE "0:"
    INDEX 01 01:57:27
  TRACK 98 AUDIO
    TITLE "7:cjc057_08497"
    INDEX 01 01:58:34
  TRACK 99 AUDIO
    TITLE "0:"
    INDEX 01 02:00:00
  TRACK 100 AUDIO
    TITLE "8:cjc057_08498"
    INDEX 01 02:00:31
  TRACK 101 AUDIO
    TITLE "0:"
    INDEX 01 02:01:56
  TRACK 102 AUDIO
    TITLE "7:cjc057_08499"
    INDEX 01 02:02:66
  TRACK 103 AUDIO
    TITLE "0:"
    INDEX 01 02:04:29
  TRACK 104 AUDIO
    TITLE "8:cjc057_08500"
    INDEX 01 02:04:62
  TRACK 105 AUDIO
    TITLE "0:"
    INDEX 01 02:07:12
  TRACK 106 AUDIO
    TITLE "7:cjc057_08501"
    INDEX 01 02:08:21
  TRACK 107 AUDIO
    TITLE "0:"
    INDEX 01 02:09:46
  TRACK 108 AUDIO
    TITLE "8:cjc057_08502"
    INDEX 01 02:10:02
  TRACK 109 AUDIO
    TITLE "0:"
    INDEX 01 02:11:41
  TRACK 110 AUDIO
    TITLE "7:cjc057_08503"
    INDEX 01 02:12:48
  TRACK 111 AUDIO
    TITLE "0:"
    INDEX 01 02:13:65
  TRACK 112 AUDIO
    TITLE "8:cjc057_08504"
    INDEX 01 02:14:24
  TRACK 113 AUDIO
    TITLE "0:"
    INDEX 01 02:16:34
